<?xml version="1.0" standalone="no"?>
<!DOCTYPE svg PUBLIC "-//W3C//DTD SVG 20010904//EN"
 "http://www.w3.org/TR/2001/REC-SVG-20010904/DTD/svg10.dtd">
<svg version="1.0" xmlns="http://www.w3.org/2000/svg"
 width="340.000000pt" height="340.000000pt" viewBox="0 0 340.000000 340.000000"
 preserveAspectRatio="xMidYMid meet">
<metadata>
Created by potrace 1.14, written by Peter Selinger 2001-2017
</metadata>
<g transform="translate(0.000000,340.000000) scale(0.100000,-0.100000)"
fill="#000000" stroke="none">
<path d="M1590 2919 c-368 -36 -565 -99 -802 -256 -228 -151 -344 -345 -309
-515 7 -35 20 -74 28 -87 16 -24 15 -26 -45 -80 -67 -61 -104 -128 -121 -218
-10 -53 -5 -119 10 -129 19 -12 6 -36 -50 -96 -74 -77 -89 -103 -74 -126 8
-13 24 -17 74 -15 35 1 81 5 102 8 42 6 50 -10 18 -39 -31 -28 -49 -191 -31
-279 19 -90 34 -121 84 -169 36 -36 45 -52 51 -95 11 -82 73 -141 190 -181 27
-10 79 -21 160 -36 128 -24 420 -35 920 -36 614 0 782 10 1005 62 140 32 268
90 311 141 45 52 66 141 51 217 -7 36 -5 52 11 83 18 35 19 45 8 109 -6 38
-18 86 -26 105 -13 31 -13 37 0 56 8 12 15 31 15 44 0 12 5 33 12 47 10 23 6
34 -46 112 l-58 87 12 61 c7 34 14 68 16 76 2 8 18 21 35 29 61 27 60 101 -3
162 -22 21 -49 41 -61 45 -45 14 -49 24 -22 60 21 27 25 44 25 98 0 59 -5 74
-47 153 -79 144 -312 366 -483 459 -222 121 -605 178 -960 143z m381 -40 c117
-9 273 -36 391 -67 57 -15 113 -46 110 -61 -2 -10 4 -12 21 -7 31 7 156 -71
222 -139 24 -25 47 -45 51 -45 13 0 114 -103 114 -116 0 -7 -5 -14 -12 -16 -7
-3 -9 -12 -5 -22 6 -14 14 -17 37 -12 27 5 33 1 65 -47 19 -28 35 -63 35 -77
0 -15 7 -35 15 -46 36 -48 -4 -170 -72 -217 -47 -32 -147 -77 -173 -77 -10 0
-21 -4 -24 -9 -3 -5 -22 -12 -43 -16 -29 -5 -38 -3 -46 10 -8 16 -12 15 -31
-9 -14 -17 -35 -28 -64 -32 -43 -7 -43 -6 -36 20 5 20 2 26 -9 26 -22 0 -31
-18 -16 -36 6 -8 10 -17 7 -19 -2 -2 -60 -10 -129 -16 -153 -14 -1130 -6
-1264 10 -266 33 -384 64 -481 126 -64 41 -89 73 -108 140 -21 71 -20 109 5
185 38 117 124 216 274 316 229 154 424 217 760 248 183 17 245 18 406 5z
m-1363 -928 c90 -62 234 -104 446 -131 256 -32 1188 -42 1386 -14 104 15 276
14 301 -1 4 -3 -5 -18 -20 -34 -15 -16 -44 -63 -63 -104 -52 -107 -93 -140
-124 -99 -12 15 -15 15 -24 2 -9 -13 -14 -11 -33 12 -12 15 -35 56 -52 92 -34
72 -41 76 -151 76 -60 0 -83 -11 -49 -24 27 -10 16 -32 -49 -94 -61 -59 -67
-62 -113 -62 -44 1 -53 5 -105 54 -31 30 -54 57 -51 60 4 3 18 6 32 6 33 0
110 21 136 37 25 14 14 28 -12 14 -10 -5 -68 -14 -130 -19 -133 -12 -148 -20
-223 -123 -87 -120 -153 -126 -233 -22 -23 31 -55 71 -70 89 l-28 33 23 5 c13
2 58 10 101 17 43 6 80 16 83 20 8 14 -144 10 -215 -5 -85 -19 -110 -39 -138
-116 -43 -117 -83 -128 -142 -41 -18 27 -44 60 -57 72 -13 12 -24 25 -24 29 0
3 23 12 52 19 56 15 128 50 128 63 0 11 -24 10 -36 -1 -5 -5 -47 -16 -93 -25
-115 -23 -155 -43 -228 -114 -35 -33 -72 -64 -83 -67 -32 -10 -65 18 -84 72
-9 26 -26 67 -38 91 -25 50 -19 60 38 68 74 9 144 27 144 37 0 17 -181 3 -222
-17 -32 -15 -40 -27 -58 -80 -26 -79 -37 -94 -75 -102 -22 -4 -38 0 -55 14
-21 17 -24 28 -23 73 2 88 37 165 102 226 31 29 59 53 64 53 4 0 33 -18 65
-39z m2452 14 c27 -14 54 -34 60 -45 13 -25 3 -25 -34 0 -25 16 -41 18 -93 13
-35 -3 -63 -2 -63 3 1 9 58 51 73 53 4 1 30 -10 57 -24z m-83 -79 c51 -1 96
-5 99 -8 13 -14 -11 -81 -38 -109 -29 -28 -29 -31 -14 -48 21 -23 12 -67 -15
-82 -20 -10 -59 10 -89 47 -12 14 -12 17 3 25 21 12 22 33 2 49 -12 10 -18 10
-29 1 -12 -10 -21 -5 -51 27 -24 28 -49 43 -81 51 -46 12 -52 31 -10 31 13 0
39 7 57 15 19 8 43 12 54 9 11 -3 62 -6 112 -8z m-137 -176 c6 -11 7 -20 2
-20 -10 0 -32 21 -32 32 0 16 19 8 30 -12z m-2245 -31 c0 -7 -8 -15 -17 -17
-12 -2 -15 2 -11 18 6 23 28 22 28 -1z m2184 -8 c23 -16 63 -37 87 -47 24 -10
44 -22 44 -26 0 -11 -38 -10 -60 2 -10 5 -50 10 -89 11 -54 1 -71 5 -71 16 0
18 28 73 38 73 4 0 27 -13 51 -29z m-413 -8 c-7 -7 -26 7 -26 19 0 6 6 6 15
-2 9 -7 13 -15 11 -17z m-42 -32 c21 -22 36 -43 32 -49 -3 -5 -25 -12 -49 -15
-38 -5 -180 -46 -232 -67 -11 -5 -29 -11 -40 -13 -31 -8 -175 -62 -227 -86
-26 -11 -50 -21 -53 -21 -4 0 -76 -34 -160 -75 -85 -41 -158 -75 -163 -75 -5
0 -15 7 -22 15 -35 43 -181 110 -310 144 -213 56 -559 76 -783 45 -64 -9 -61
3 16 83 l63 65 70 3 c41 1 82 9 101 18 18 10 38 17 45 17 14 0 50 -75 40 -84
-3 -3 -36 -6 -73 -6 -37 0 -71 -4 -74 -10 -4 -6 24 -10 76 -10 46 0 135 -5
198 -11 208 -18 370 -50 481 -94 25 -10 49 -22 55 -27 12 -10 35 -10 35 1 0 8
-104 62 -143 75 -23 7 -17 30 9 34 10 2 61 24 112 50 89 44 94 46 104 27 6
-10 28 -35 49 -56 40 -39 87 -54 142 -44 33 6 129 70 212 139 l46 39 34 -33
c39 -38 45 -60 15 -60 -54 0 -370 -147 -370 -172 0 -6 66 18 155 57 141 61
259 95 330 95 80 0 103 11 175 84 30 31 57 56 60 56 3 0 23 -18 44 -39z m-964
11 l23 -18 -54 -31 c-30 -17 -56 -29 -57 -28 -2 2 5 24 17 49 22 50 37 56 71
28z m-390 -11 c0 -5 -12 -14 -27 -19 -16 -5 -37 -14 -48 -18 -18 -7 -19 -6 -5
10 22 28 80 47 80 27z m99 -87 c18 -25 30 -48 27 -51 -2 -3 -20 0 -38 5 -18 6
-60 14 -93 18 -72 8 -100 19 -70 29 11 4 38 15 60 25 62 29 77 26 114 -26z
m2015 6 c36 -40 45 -60 26 -60 -5 0 -10 4 -10 8 0 9 -53 37 -117 64 -46 18
-41 28 16 28 44 0 52 -4 85 -40z m-199 5 c100 -33 135 -47 135 -56 0 -5 -13
-9 -28 -9 -45 0 -229 -29 -322 -51 -47 -11 -96 -23 -110 -25 -14 -3 -34 -9
-45 -14 -11 -4 -36 -14 -55 -21 -113 -40 -279 -137 -347 -202 -23 -22 -36 -27
-45 -20 -7 6 -74 34 -148 62 -74 29 -145 56 -158 61 -13 6 -32 10 -43 10 -23
0 -21 19 2 32 88 48 427 169 569 201 120 28 123 28 155 7 17 -11 38 -20 48
-20 9 0 17 -4 17 -9 0 -8 -15 -15 -92 -43 -100 -35 -300 -149 -286 -163 2 -3
49 18 104 45 54 27 119 56 144 65 98 35 188 63 240 75 30 6 71 16 91 21 20 5
50 9 67 9 32 0 51 15 29 22 -14 6 -142 -7 -174 -17 -48 -15 -5 38 47 58 23 9
160 -3 205 -18z m-2145 -153 c0 -4 -28 -18 -62 -31 -64 -25 -134 -67 -157 -95
-15 -18 -31 -21 -31 -6 0 5 13 39 30 75 l30 65 95 0 c52 0 95 -3 95 -8z m-276
-66 c-6 -16 -24 -23 -24 -8 0 10 22 33 27 28 2 -2 1 -11 -3 -20z m2316 -36 c0
-5 -4 -10 -9 -10 -6 0 -13 5 -16 10 -3 6 1 10 9 10 9 0 16 -4 16 -10z m-1510
-30 c0 -4 -9 -10 -20 -13 -11 -3 -24 -16 -29 -29 -13 -33 17 -61 85 -83 30 -9
56 -21 60 -26 3 -5 16 -9 30 -9 13 0 24 -4 24 -9 0 -16 -150 30 -177 53 -7 6
-19 17 -28 24 -21 18 -19 64 5 90 18 19 50 21 50 2z m1380 10 c0 -5 -4 -10
-10 -10 -5 0 -10 5 -10 10 0 6 5 10 10 10 6 0 10 -4 10 -10z m-2042 -50 c18
-11 41 -20 52 -20 11 0 20 -4 20 -9 0 -8 -80 8 -130 25 -13 4 -13 6 0 14 20
13 20 13 58 -10z m2412 -50 c0 -22 -4 -40 -10 -40 -5 0 -10 14 -10 30 0 28 -2
30 -21 20 -28 -15 -38 -4 -13 15 36 27 54 19 54 -25z m112 -77 c-2 -7 -8 -13
-12 -13 -13 0 -20 43 -9 57 6 6 8 17 4 23 -4 6 -3 19 1 28 8 19 24 -73 16 -95z
m-2666 34 c7 -23 18 -62 25 -87 17 -58 18 -59 35 -36 14 20 14 20 14 0 0 -11
13 -35 30 -54 16 -19 29 -38 30 -42 0 -10 -81 21 -97 36 -40 38 -95 209 -77
238 10 15 27 -8 40 -55z m2461 45 c9 -6 7 -11 -7 -20 -20 -12 -36 -1 -25 18 7
12 16 12 32 2z m-87 -28 c0 -10 -6 -13 -19 -9 -20 6 -47 -18 -37 -33 3 -6 -1
-15 -9 -22 -13 -10 -15 -8 -15 13 0 17 -7 26 -22 30 -29 8 -38 1 -38 -31 0
-16 -3 -22 -8 -15 -4 6 -16 11 -27 10 -13 -1 -21 5 -23 18 -2 18 7 22 90 36
51 9 96 17 101 18 4 0 7 -6 7 -15z m-2306 -18 c-3 -13 -1 -34 6 -45 9 -17 8
-21 -5 -21 -9 0 -15 9 -15 23 0 12 -3 32 -6 45 -5 16 -2 22 10 22 12 0 15 -6
10 -24z m66 -13 c0 -10 9 -33 20 -51 11 -18 18 -38 14 -44 -4 -6 0 -14 7 -19
19 -12 32 -11 24 1 -3 6 -1 10 5 10 7 0 14 -9 17 -20 5 -20 27 -27 36 -12 3 4
-13 34 -34 66 -21 33 -37 61 -35 63 2 2 19 0 37 -5 26 -6 33 -13 31 -27 -5
-24 18 -94 38 -119 22 -27 81 -62 115 -69 17 -3 38 -9 48 -13 16 -6 17 -3 11
22 -7 27 -7 27 12 8 57 -56 56 -58 -28 -51 -70 6 -187 41 -266 80 -35 17 -72
65 -72 93 0 23 1 24 16 10 15 -16 34 -21 34 -11 0 3 -11 18 -25 33 -14 15 -25
32 -25 39 0 7 -8 17 -17 22 -15 9 -14 10 10 11 19 0 27 -5 27 -17z m2490 7 c0
-5 -7 -10 -16 -10 -8 0 -12 5 -9 10 3 6 10 10 16 10 5 0 9 -4 9 -10z m-491
-29 c6 -14 18 -37 28 -50 17 -24 17 -24 -4 -19 -17 5 -20 2 -15 -11 5 -14 3
-14 -11 -3 -9 8 -17 30 -19 49 l-3 36 -73 1 c-45 1 -76 -3 -80 -10 -9 -13 -52
-25 -52 -14 0 5 -3 15 -6 23 -7 18 19 22 143 23 79 1 82 0 92 -25z m225 14
c-6 -16 -24 -21 -24 -7 0 11 11 22 21 22 5 0 6 -7 3 -15z m68 -25 c-6 -11 -12
-27 -12 -35 0 -9 -7 -18 -15 -21 -8 -4 -15 -14 -15 -23 1 -13 4 -12 19 7 22
25 31 28 31 9 0 -39 -135 -97 -223 -97 -59 0 -111 26 -122 60 -10 31 0 35 31
11 15 -12 41 -21 60 -21 26 0 34 5 42 28 l10 27 1 -27 c1 -14 4 -33 7 -42 9
-23 41 -20 49 5 5 14 10 17 19 10 7 -6 17 -6 26 0 12 7 11 10 -7 15 -13 4 -23
13 -23 22 0 13 2 13 18 -1 35 -32 44 -22 83 81 8 24 15 30 23 22 7 -7 7 -16
-2 -30z m73 20 c3 -5 1 -10 -4 -10 -6 0 -11 5 -11 10 0 6 2 10 4 10 3 0 8 -4
11 -10z m-2165 -29 c0 -11 3 -21 8 -23 19 -8 50 -60 45 -78 -5 -17 -7 -17 -29
9 -13 16 -24 36 -24 45 0 9 -3 16 -7 16 -5 0 -13 11 -20 25 -10 22 -9 25 8 25
12 0 19 -7 19 -19z m115 3 c45 -3 45 -3 45 -22 0 -10 5 -23 12 -30 6 -6 9 -15
5 -18 -11 -11 -37 24 -31 40 4 12 0 16 -15 16 -12 0 -24 -7 -27 -15 -4 -8 -10
-15 -16 -15 -5 0 -6 5 -3 10 3 6 0 10 -8 10 -16 0 -30 24 -20 34 3 3 11 2 17
-1 6 -4 25 -8 41 -9z m229 -19 c4 -19 22 -54 41 -79 21 -28 30 -47 24 -53 -14
-14 9 -30 54 -38 l38 -7 -12 26 c-10 21 -14 23 -23 11 -10 -12 -13 -12 -24 1
-10 11 -10 14 1 14 8 0 19 16 24 38 10 39 10 39 -31 72 -18 14 -18 13 -11 -10
4 -14 12 -26 16 -28 5 -2 9 -11 9 -19 0 -27 -48 37 -53 71 -6 39 -2 43 20 23
10 -8 37 -23 60 -32 38 -15 41 -19 27 -32 -24 -25 -9 -101 29 -140 30 -32 67
-44 67 -23 0 6 -8 29 -19 53 -48 110 -49 114 -21 112 28 -2 33 -10 20 -35 -9
-16 -9 -25 -1 -33 8 -8 11 -8 11 2 0 7 5 9 11 6 6 -4 7 -19 4 -36 -6 -25 -4
-28 12 -23 15 6 16 4 6 -7 -20 -21 -15 -29 18 -29 17 0 40 -5 51 -11 17 -9 24
-8 33 5 11 14 14 15 25 1 7 -9 30 -15 54 -16 39 -1 40 -1 10 -8 -17 -4 -36
-11 -42 -15 -18 -11 -215 -9 -259 3 -23 6 -85 15 -137 20 -91 9 -99 12 -145
49 -27 21 -61 53 -75 69 -39 46 -33 69 8 38 10 -8 23 -12 29 -8 6 3 7 1 3 -5
-4 -7 -1 -12 7 -12 8 0 25 -11 38 -25 24 -25 49 -33 49 -16 0 5 -7 11 -15 15
-8 3 -15 16 -15 30 0 14 -5 28 -10 31 -8 5 -7 11 0 20 13 16 4 39 -11 29 -5
-3 -7 -9 -4 -14 3 -5 1 -11 -5 -15 -5 -3 -10 3 -10 14 0 12 -4 21 -10 21 -5 0
-10 5 -10 10 0 6 20 10 44 10 l45 0 -10 -32 c-13 -46 5 -101 50 -148 21 -22
43 -40 50 -40 15 0 27 30 15 39 -22 15 -87 175 -76 186 12 12 20 3 26 -30z
m1176 8 c0 -21 -3 -24 -12 -15 -7 7 -21 12 -32 12 -19 1 -19 2 4 15 35 20 40
19 40 -12z m180 -27 c0 -38 18 -96 30 -96 4 0 10 -7 14 -15 8 -22 -5 -18 -36
9 -25 21 -28 30 -28 85 0 39 4 60 10 56 6 -3 10 -21 10 -39z m511 -16 c10 -6
27 -10 36 -8 9 2 18 -2 20 -8 5 -14 -29 -24 -79 -24 -41 0 -48 13 -23 46 8 10
15 28 16 39 1 13 3 11 6 -8 2 -15 13 -32 24 -37z m6 38 c-3 -8 -6 -5 -6 6 -1
11 2 17 5 13 3 -3 4 -12 1 -19z m-794 -35 c-3 -16 -7 -35 -10 -43 -3 -8 -7
-22 -8 -30 -1 -8 -5 -32 -9 -52 -6 -33 -4 -38 12 -38 10 0 24 6 30 12 10 10
15 10 22 -2 5 -8 6 -17 2 -21 -16 -13 -303 -41 -359 -35 -32 4 -75 7 -95 8
-21 1 -38 3 -38 5 0 1 16 23 35 49 19 25 35 51 36 57 0 7 4 2 10 -11 5 -13 14
-20 20 -17 7 5 10 -1 9 -16 -4 -40 -1 -43 19 -17 15 18 27 24 48 21 25 -4 29
0 40 34 13 43 0 71 -16 32 l-10 -24 0 27 c-1 17 5 29 17 32 38 12 148 23 156
16 11 -11 -1 -30 -20 -30 -9 0 -14 -11 -14 -34 0 -19 -5 -38 -10 -41 -15 -9
-2 -25 20 -25 10 0 20 -7 24 -15 3 -8 10 -15 15 -15 19 0 32 41 37 112 5 76 8
88 28 88 9 0 12 -9 9 -27z m177 -66 c0 -24 -3 -47 -7 -51 -4 -4 -8 -17 -8 -29
0 -19 -6 -22 -49 -25 l-49 -3 16 24 c15 23 15 26 0 31 -8 4 -22 1 -29 -5 -9
-8 -14 -8 -14 -1 0 6 5 14 10 17 6 3 10 26 10 51 0 24 5 44 10 44 6 0 10 -19
10 -42 0 -45 22 -78 51 -78 23 0 25 4 34 64 6 42 4 48 -9 43 -12 -5 -16 0 -16
20 l0 27 20 -22 c14 -14 20 -35 20 -65z m-902 33 c26 0 27 -2 27 -55 0 -35 -4
-55 -12 -55 -16 0 -22 21 -12 47 14 37 1 56 -32 49 -22 -4 -29 -2 -29 10 0 11
6 14 16 10 9 -3 28 -6 42 -6z m-601 -40 c-5 -49 -13 -59 -22 -29 -5 14 -3 25
4 27 6 2 9 8 5 13 -5 9 3 29 12 29 3 0 3 -18 1 -40z m841 27 c40 2 72 0 72 -4
0 -17 -18 -35 -29 -29 -6 4 -49 8 -96 9 -64 2 -85 0 -85 -10 0 -7 5 -13 10
-13 12 0 13 -47 1 -54 -9 -6 -31 59 -31 91 0 18 5 19 43 13 24 -3 76 -5 115
-3z m172 1 c0 -7 -4 -20 -10 -28 -8 -12 -10 -12 -16 4 -5 14 -9 15 -15 4 -6
-10 -11 -10 -20 -1 -6 6 -8 16 -5 22 10 15 66 14 66 -1z m1205 -86 c-4 -4 -11
1 -16 10 -11 19 -45 13 -53 -9 -4 -9 -1 -22 5 -29 14 -17 49 -18 49 -2 0 6 2
9 5 6 16 -15 -13 -64 -58 -100 -41 -32 -56 -39 -80 -34 -24 5 -34 0 -57 -24
-17 -18 -38 -30 -54 -30 -27 0 -33 9 -16 26 15 15 -12 36 -34 28 -21 -8 -21
-40 1 -52 15 -9 14 -10 -3 -15 -154 -46 -462 -67 -999 -67 -681 0 -885 15
-1106 80 -60 17 -117 64 -128 107 -19 69 -20 68 71 67 61 -1 99 -8 143 -25 49
-19 82 -24 180 -26 66 -1 172 -10 235 -19 165 -24 339 -28 425 -10 62 13 83
13 188 -1 109 -15 129 -15 265 1 81 10 194 21 252 26 113 8 168 20 244 53 39
17 54 18 77 10 22 -8 38 -7 73 5 42 15 46 15 65 -2 17 -15 23 -16 36 -6 8 7
12 16 10 21 -3 4 14 18 37 30 33 17 61 22 125 23 65 1 86 5 100 19 17 17 18
17 21 -19 2 -20 0 -39 -3 -42z m-1648 36 c-3 -7 -5 -2 -5 12 0 14 2 19 5 13 2
-7 2 -19 0 -25z m-550 0 c-3 -8 -6 -5 -6 6 -1 11 2 17 5 13 3 -3 4 -12 1 -19z
m1242 -9 c-19 -12 -24 -2 -8 17 9 11 14 13 17 4 3 -7 -2 -16 -9 -21z m314 -11
c5 -35 4 -38 -19 -38 -24 0 -24 1 -10 22 9 12 16 31 16 42 0 29 6 16 13 -26z
m-823 22 c0 -5 -4 -10 -10 -10 -5 0 -10 5 -10 10 0 6 5 10 10 10 6 0 10 -4 10
-10z m130 -9 c0 -22 -35 -51 -61 -51 -10 0 -19 -4 -21 -9 -5 -14 -48 -24 -48
-11 0 6 8 13 18 16 59 19 92 39 92 56 0 10 5 18 10 18 6 0 10 -9 10 -19z
m-305 -21 c3 -5 1 -10 -4 -10 -6 0 -11 5 -11 10 0 6 2 10 4 10 3 0 8 -4 11
-10z m1040 0 c3 -5 -3 -10 -15 -10 -12 0 -18 5 -15 10 3 6 10 10 15 10 5 0 12
-4 15 -10z"/>
<path d="M1645 2790 c-11 -12 -15 -27 -11 -43 6 -26 81 -81 96 -72 18 11 8 75
-11 75 -5 0 -9 -9 -9 -20 0 -25 -16 -26 -30 -1 -15 29 -12 41 10 41 23 0 26
10 8 28 -17 17 -32 15 -53 -8z"/>
<path d="M2346 2753 c-11 -11 -6 -23 9 -23 8 0 15 4 15 9 0 13 -16 22 -24 14z"/>
<path d="M2087 2743 c-12 -11 -8 -23 7 -23 23 0 29 -20 12 -39 -22 -24 -20
-33 6 -29 12 2 29 15 37 30 14 24 14 28 -3 47 -19 21 -46 27 -59 14z"/>
<path d="M2210 2740 c0 -5 5 -10 10 -10 6 0 10 5 10 10 0 6 -4 10 -10 10 -5 0
-10 -4 -10 -10z"/>
<path d="M2048 2693 c-25 -27 -24 -63 1 -63 25 0 28 7 22 49 -6 33 -6 33 -23
14z"/>
<path d="M2437 2703 c-4 -3 -7 -15 -7 -25 0 -15 5 -17 25 -12 20 5 25 2 31
-20 8 -34 1 -41 -26 -26 -12 6 -24 9 -28 6 -10 -11 34 -61 54 -61 16 0 19 9
22 59 1 33 -3 65 -9 72 -12 15 -51 19 -62 7z"/>
<path d="M1050 2670 c-22 -22 -25 -50 -11 -78 5 -9 12 -25 15 -34 8 -26 35
-22 48 7 13 28 4 45 -14 27 -17 -17 -28 -15 -28 7 0 38 11 51 36 45 28 -7 31
7 8 30 -20 21 -30 20 -54 -4z"/>
<path d="M1396 2624 c-9 -8 -16 -22 -16 -30 0 -24 50 -64 81 -64 16 0 32 -1
37 -2 17 -6 11 40 -8 57 -20 18 -20 18 -20 -8 0 -32 -10 -34 -36 -6 -18 20
-18 21 1 35 17 13 18 16 5 24 -21 13 -26 12 -44 -6z"/>
<path d="M1877 2593 c-12 -11 -8 -23 7 -23 22 0 27 -16 15 -44 -24 -52 12 -40
40 13 11 19 10 26 -5 42 -17 19 -45 25 -57 12z"/>
<path d="M2610 2580 c0 -15 5 -20 18 -18 9 2 17 10 17 18 0 8 -8 16 -17 18
-13 2 -18 -3 -18 -18z"/>
<path d="M2350 2575 c0 -8 5 -15 10 -15 6 0 10 7 10 15 0 8 -4 15 -10 15 -5 0
-10 -7 -10 -15z"/>
<path d="M2220 2569 c0 -5 5 -7 10 -4 6 3 10 8 10 11 0 2 -4 4 -10 4 -5 0 -10
-5 -10 -11z"/>
<path d="M1840 2525 c-10 -12 -10 -21 -1 -41 15 -33 37 -25 34 11 -3 37 -17
50 -33 30z"/>
<path d="M2700 2521 c-15 -29 -13 -33 19 -26 24 5 29 2 34 -17 8 -29 -7 -45
-28 -28 -13 11 -15 9 -15 -14 0 -16 9 -31 26 -42 34 -23 46 -9 51 57 3 39 0
56 -13 70 -22 25 -60 24 -74 0z"/>
<path d="M781 2481 c-15 -28 -14 -41 10 -90 20 -41 21 -42 40 -25 20 18 26 54
9 54 -5 0 -10 -4 -10 -10 0 -5 -7 -10 -15 -10 -17 0 -20 36 -6 59 8 13 12 13
26 1 15 -13 17 -11 13 10 -4 33 -52 41 -67 11z"/>
<path d="M2263 2458 c-12 -19 -33 -60 -33 -64 0 -8 36 11 46 25 14 18 39 9 54
-20 11 -20 10 -21 -14 -17 -31 6 -36 -16 -7 -32 33 -17 51 -12 51 14 0 14 4
27 10 31 13 8 -60 75 -81 75 -10 0 -21 -6 -26 -12z"/>
<path d="M1638 2449 c-23 -13 -41 -46 -32 -60 4 -7 15 -2 30 12 23 22 25 22
38 4 12 -17 36 -14 36 6 0 11 -37 49 -47 49 -5 0 -16 -5 -25 -11z"/>
<path d="M1228 2428 c-8 -13 -18 -42 -22 -65 -7 -46 4 -54 45 -33 29 16 24 38
-7 32 -24 -4 -25 -3 -14 17 16 31 40 38 56 16 13 -17 14 -17 20 0 18 45 -51
75 -78 33z"/>
<path d="M2617 2424 c-14 -15 -6 -34 14 -34 14 0 19 5 17 17 -3 18 -20 27 -31
17z"/>
<path d="M2482 2409 c2 -6 8 -10 13 -10 5 0 11 4 13 10 2 6 -4 11 -13 11 -9 0
-15 -5 -13 -11z"/>
<path d="M1597 2363 c-16 -15 -5 -33 19 -33 23 0 54 20 54 34 0 8 -65 7 -73
-1z"/>
<path d="M2567 2313 c-12 -11 -8 -23 8 -23 23 0 18 -26 -10 -44 -25 -17 -29
-15 -26 17 1 9 -4 17 -13 17 -19 0 -46 -38 -39 -56 6 -17 75 -19 104 -3 15 7
24 7 33 0 10 -8 17 -7 25 3 10 12 8 21 -11 48 -12 18 -23 34 -23 34 0 6 -43
13 -48 7z"/>
<path d="M2057 2292 c-10 -10 -17 -24 -17 -30 0 -21 21 -24 35 -6 11 16 16 17
27 6 11 -11 10 -16 -4 -26 -24 -18 -22 -31 7 -50 37 -24 46 -20 44 22 -3 42
-15 71 -38 89 -22 17 -35 16 -54 -5z"/>
<path d="M954 2269 c-17 -19 -17 -23 -3 -47 13 -24 21 -27 72 -29 33 -1 57 2
57 8 0 18 -19 47 -36 53 -13 5 -15 2 -10 -19 7 -29 -9 -33 -40 -11 -15 12 -17
17 -6 27 6 7 12 19 12 26 0 20 -25 16 -46 -8z"/>
<path d="M2883 2273 c-19 -7 -16 -50 4 -57 24 -10 51 20 37 41 -12 19 -23 24
-41 16z"/>
<path d="M2744 2255 c-9 -22 22 -53 37 -38 15 15 7 47 -14 51 -9 2 -20 -4 -23
-13z"/>
<path d="M1782 2238 c-12 -12 -17 -58 -6 -58 4 0 13 8 20 18 12 16 14 15 38
-7 28 -26 25 -45 -5 -36 -30 10 -23 -20 8 -34 36 -16 46 -3 34 48 -15 68 -57
101 -89 69z"/>
<path d="M2360 2235 c0 -8 5 -15 10 -15 6 0 10 7 10 15 0 8 -4 15 -10 15 -5 0
-10 -7 -10 -15z"/>
<path d="M2230 2229 c0 -5 5 -7 10 -4 6 3 10 8 10 11 0 2 -4 4 -10 4 -5 0 -10
-5 -10 -11z"/>
<path d="M1388 2203 c-8 -10 -18 -39 -21 -65 -6 -45 -5 -48 16 -48 23 0 47 17
47 32 0 4 -9 8 -19 8 -30 0 -33 15 -7 39 20 19 24 20 36 6 17 -20 30 -19 30 3
0 41 -54 57 -82 25z"/>
<path d="M2832 2188 c-18 -18 -15 -28 8 -28 22 0 25 -12 10 -41 -14 -25 -26
-24 -33 1 -6 22 -27 28 -27 8 0 -7 -12 -22 -26 -33 -25 -20 -26 -22 -9 -38 16
-17 19 -16 62 8 25 14 47 25 48 25 2 0 5 -9 8 -20 3 -14 14 -20 31 -20 21 0
26 5 26 24 0 16 -7 27 -20 31 -16 5 -19 12 -14 31 4 17 0 31 -11 44 -21 23
-36 25 -53 8z"/>
<path d="M690 2131 c-16 -30 4 -66 50 -90 44 -23 55 -16 48 31 -4 29 -21 27
-28 -4 l-6 -22 -17 24 c-21 30 -22 50 -2 50 8 0 15 7 15 15 0 22 -47 19 -60
-4z"/>
<path d="M2380 2085 c-18 -19 -21 -28 -12 -37 9 -9 16 -8 30 5 26 24 39 21 46
-9 9 -33 1 -42 -24 -26 -26 16 -30 15 -30 -6 0 -21 29 -52 48 -52 7 0 12 6 12
13 0 8 7 29 17 47 14 30 14 36 2 59 -20 36 -58 39 -89 6z"/>
<path d="M1127 2072 c-10 -10 -17 -28 -17 -40 0 -22 37 -92 49 -92 15 0 31 25
31 49 0 23 -1 23 -19 7 -17 -16 -19 -16 -25 0 -10 25 3 56 21 50 23 -9 34 3
23 25 -13 24 -42 25 -63 1z"/>
<path d="M2497 2084 c-14 -15 -6 -34 14 -34 14 0 19 5 17 17 -3 18 -20 27 -31
17z"/>
<path d="M2615 2080 c-9 -15 3 -30 24 -30 23 0 31 9 24 26 -6 16 -39 19 -48 4z"/>
<path d="M2230 2060 c0 -5 5 -10 10 -10 6 0 10 5 10 10 0 6 -4 10 -10 10 -5 0
-10 -4 -10 -10z"/>
<path d="M1588 2049 c-39 -22 -6 -89 44 -89 24 0 23 17 -2 30 -22 12 -27 36
-8 42 6 2 8 10 4 16 -9 14 -15 15 -38 1z"/>
<path d="M1650 2021 c0 -6 5 -13 10 -16 6 -3 10 -15 10 -26 0 -12 7 -19 20
-19 26 0 26 20 0 48 -22 23 -40 29 -40 13z"/>
<path d="M1937 2013 c-12 -11 -8 -23 7 -23 22 0 28 -17 14 -40 -17 -27 -36
-25 -40 5 -4 33 -26 19 -30 -20 -3 -28 -1 -30 27 -28 40 3 70 20 86 49 10 20
10 27 -6 44 -18 20 -46 26 -58 13z"/>
<path d="M2110 1895 c0 -8 5 -15 10 -15 6 0 10 7 10 15 0 8 -4 15 -10 15 -5 0
-10 -7 -10 -15z"/>
<path d="M2230 1895 c0 -10 7 -15 18 -13 21 4 19 22 -2 26 -10 2 -16 -3 -16
-13z"/>
<path d="M2362 1898 c7 -19 38 -22 38 -4 0 10 -9 16 -21 16 -12 0 -19 -5 -17
-12z"/>
<path d="M2637 1743 c-12 -11 -8 -23 8 -23 8 0 15 7 15 15 0 16 -12 20 -23 8z"/>
<path d="M2502 1728 c6 -18 28 -21 28 -4 0 9 -7 16 -16 16 -9 0 -14 -5 -12
-12z"/>
<path d="M524 974 c3 -8 6 -18 6 -20 0 -2 5 -4 10 -4 16 0 11 27 -6 34 -12 5
-15 2 -10 -10z"/>
<path d="M720 966 c0 -9 7 -16 16 -16 17 0 14 22 -4 28 -7 2 -12 -3 -12 -12z"/>
<path d="M2041 1001 c-16 -10 -51 -105 -51 -138 0 -28 10 -29 42 -3 32 25 50
69 46 111 -3 35 -15 44 -37 30z"/>
<path d="M2923 913 c-20 -8 -15 -41 7 -48 25 -8 40 1 40 25 0 14 -23 34 -33
29 -1 0 -8 -3 -14 -6z"/>
<path d="M2541 730 c-17 -10 -7 -40 14 -40 8 0 15 9 15 19 0 24 -12 32 -29 21z"/>
<path d="M2661 727 c-9 -11 -8 -17 4 -27 19 -16 47 -5 43 17 -4 23 -31 28 -47
10z"/>
<path d="M2414 716 c-8 -22 3 -33 18 -18 9 9 9 15 0 24 -9 9 -13 7 -18 -6z"/>
</g>
</svg>
